<?xml version="1.0" ?><svg id="Layer_1" style="enable-background:new 0 0 100 100;" version="1.1" viewBox="0 0 100 100" xml:space="preserve" xmlns="http://www.w3.org/2000/svg" xmlns:xlink="http://www.w3.org/1999/xlink"><g><path d="M25.1,63.8h-6.7c-4,0-7.3-3.2-7.3-7.1V25.2c0-3.9,3.3-7.1,7.3-7.1H62c4,0,7.3,3.2,7.3,7.1v5.9H30.5c-2.9,0-5.3,2.3-5.3,5.1   V63.8z M18.5,20.1c-2.9,0-5.3,2.3-5.3,5.1v31.6c0,2.8,2.4,5.1,5.3,5.1h4.7V36.2c0-3.9,3.3-7.1,7.3-7.1h36.8v-3.9   c0-2.8-2.4-5.1-5.3-5.1H18.5z"/></g><g><path d="M87.4,81.9c-1.3,0-3.6-1.3-8.1-4c-2-1.2-4.8-2.9-5.4-3l-43.5,0c-4,0-7.3-3.2-7.3-7.1V36.2c0-3.9,3.3-7.1,7.3-7.1H74   c4,0,7.3,3.2,7.3,7.1v31.6c0.1,0.6,1.9,3.2,3.2,5.1c3.9,5.6,5.1,7.5,3.9,8.6l0,0l0,0v0C88.2,81.7,87.9,81.9,87.4,81.9z M30.5,31.1   c-2.9,0-5.3,2.3-5.3,5.1v31.6c0,2.8,2.4,5.1,5.3,5.1H74c1,0,2.6,1,6.5,3.3c1.8,1.1,4.6,2.8,6.1,3.5c-0.7-1.4-2.5-4-3.6-5.6   c-2.6-3.8-3.6-5.3-3.6-6.2V36.2c0-2.8-2.4-5.1-5.3-5.1H30.5z"/></g><g><path d="M66.3,44.5H37.7c-0.6,0-1-0.4-1-1s0.4-1,1-1h28.7c0.6,0,1,0.4,1,1S66.9,44.5,66.3,44.5z"/></g><g><path d="M66.3,50.5H37.7c-0.6,0-1-0.4-1-1s0.4-1,1-1h28.7c0.6,0,1,0.4,1,1S66.9,50.5,66.3,50.5z"/></g><g><path d="M66.3,56.5H37.7c-0.6,0-1-0.4-1-1s0.4-1,1-1h28.7c0.6,0,1,0.4,1,1S66.9,56.5,66.3,56.5z"/></g></svg>