<?xml version="1.0" ?><svg id="Layer_1" style="enable-background:new 0 0 100 100;" version="1.1" viewBox="0 0 100 100" xml:space="preserve" xmlns="http://www.w3.org/2000/svg" xmlns:xlink="http://www.w3.org/1999/xlink"><style type="text/css">
	.st0{fill:none;stroke:#000000;stroke-width:2;stroke-linecap:round;stroke-miterlimit:10;}
	.st1{fill:none;stroke:#000000;stroke-width:2;stroke-miterlimit:10;}
	.st2{fill:#FFFFFF;stroke:#000000;stroke-width:2;stroke-linecap:round;stroke-miterlimit:10;}
</style><path class="st0" d="M25.5,59.4v0.2h-4.9c-2.6,0-4.7-2.4-4.7-5.3V26.9c0-2.9,2.1-5.3,4.7-5.3h40.7c2.6,0,4.7,2.4,4.7,5.3V31H30.2"/><path class="st0" d="M25.5,37.8v-1.5c0-2.9,2.1-5.3,4.7-5.3h40.7c2.6,0,4.7,2.4,4.7,5.3v25.1c0,2.3,9.9,15.5,8.5,16.9  C82.9,79.5,70.6,69,69,69H30.2c-2.6,0-4.7-2.4-4.7-5.3V50.8"/><line class="st0" x1="37" x2="63.1" y1="52.8" y2="52.8"/><line class="st0" x1="37" x2="63.1" y1="47.5" y2="47.5"/><line class="st0" x1="37" x2="63.1" y1="42.3" y2="42.3"/></svg>