<?xml version="1.0" ?><svg data-name="015_HEALTH" height="24" id="_015_HEALTH" viewBox="0 0 24 24" width="24" xmlns="http://www.w3.org/2000/svg"><title/><path d="M8.03418,21.915A5.94964,5.94964,0,0,1,3.82666,11.75928l7.93213-7.93213a5.94964,5.94964,0,0,1,8.41455,8.41357L19.144,13.27A.99989.99989,0,0,1,17.73,11.856l1.02881-1.02881a3.9508,3.9508,0,0,0-.00049-5.58594,4.046,4.046,0,0,0-5.58545,0L5.24121,13.17285a3.9508,3.9508,0,0,0,.00049,5.58594,4.046,4.046,0,0,0,5.58545,0l4.07471-4.07471a.99989.99989,0,1,1,1.41406,1.41406l-4.07471,4.07471A5.91053,5.91053,0,0,1,8.03418,21.915Z" style="fill:#333"/><path d="M16,16a.99676.99676,0,0,1-.707-.293l-4-4A.99989.99989,0,0,1,12.707,10.293l4,4A1,1,0,0,1,16,16Z" style="fill:#333"/></svg>